<svg xmlns="http://www.w3.org/2000/svg" xmlns:xlink="http://www.w3.org/1999/xlink" width="1200" zoomAndPan="magnify" viewBox="0 0 900 472.499986" height="600" preserveAspectRatio="xMidYMid meet" version="1.0"><defs><g/><clipPath id="2a5642b997"><path d="M 3.351562 162.058594 L 140.355469 162.058594 L 140.355469 194.820312 L 3.351562 194.820312 Z M 3.351562 162.058594 " clip-rule="nonzero"/></clipPath><clipPath id="4ff56447b7"><path d="M 148.285156 162.058594 L 285.285156 162.058594 L 285.285156 194.820312 L 148.285156 194.820312 Z M 148.285156 162.058594 " clip-rule="nonzero"/></clipPath><clipPath id="af9d395aec"><path d="M 291.058594 236.503906 L 428.058594 236.503906 L 428.058594 269.265625 L 291.058594 269.265625 Z M 291.058594 236.503906 " clip-rule="nonzero"/></clipPath><clipPath id="dbe141a947"><path d="M 610.742188 162.058594 L 747.746094 162.058594 L 747.746094 194.820312 L 610.742188 194.820312 Z M 610.742188 162.058594 " clip-rule="nonzero"/></clipPath><clipPath id="e4c07ff0d3"><path d="M 756.734375 162.058594 L 893.738281 162.058594 L 893.738281 194.820312 L 756.734375 194.820312 Z M 756.734375 162.058594 " clip-rule="nonzero"/></clipPath><clipPath id="8a178bb5e8"><path d="M 570.792969 202.558594 L 603.554688 202.558594 L 603.554688 339.558594 L 570.792969 339.558594 Z M 570.792969 202.558594 " clip-rule="nonzero"/></clipPath><clipPath id="58512f0c3b"><path d="M 0.476562 161 L 141 161 L 141 270 L 0.476562 270 Z M 0.476562 161 " clip-rule="nonzero"/></clipPath><clipPath id="7b4a70ba17"><path d="M 570 282 L 604 282 L 604 309 L 570 309 Z M 570 282 " clip-rule="nonzero"/></clipPath><clipPath id="31e3ae6a28"><path d="M 568.742188 306.074219 L 570.464844 282.160156 L 605.585938 284.6875 L 603.867188 308.601562 Z M 568.742188 306.074219 " clip-rule="nonzero"/></clipPath><clipPath id="a459fa36c9"><path d="M 568.742188 306.074219 L 570.464844 282.160156 L 605.585938 284.6875 L 603.867188 308.601562 Z M 568.742188 306.074219 " clip-rule="nonzero"/></clipPath></defs><g clip-path="url(#2a5642b997)"><path fill="#1d9ade" d="M 3.351562 162.058594 L 140.410156 162.058594 L 140.410156 194.820312 L 3.351562 194.820312 Z M 3.351562 162.058594 " fill-opacity="1" fill-rule="nonzero"/></g><g clip-path="url(#4ff56447b7)"><path fill="#1d9ade" d="M 148.285156 162.058594 L 285.339844 162.058594 L 285.339844 194.820312 L 148.285156 194.820312 Z M 148.285156 162.058594 " fill-opacity="1" fill-rule="nonzero"/></g><g clip-path="url(#af9d395aec)"><path fill="#1d9ade" d="M 291.058594 236.503906 L 428.113281 236.503906 L 428.113281 269.265625 L 291.058594 269.265625 Z M 291.058594 236.503906 " fill-opacity="1" fill-rule="nonzero"/></g><g clip-path="url(#dbe141a947)"><path fill="#1d9ade" d="M 610.742188 162.058594 L 747.800781 162.058594 L 747.800781 194.820312 L 610.742188 194.820312 Z M 610.742188 162.058594 " fill-opacity="1" fill-rule="nonzero"/></g><g clip-path="url(#e4c07ff0d3)"><path fill="#1d9ade" d="M 756.734375 162.058594 L 893.792969 162.058594 L 893.792969 194.820312 L 756.734375 194.820312 Z M 756.734375 162.058594 " fill-opacity="1" fill-rule="nonzero"/></g><g clip-path="url(#8a178bb5e8)"><path fill="#1d9ade" d="M 570.792969 339.558594 L 570.792969 202.5 L 603.554688 202.5 L 603.554688 339.558594 Z M 570.792969 339.558594 " fill-opacity="1" fill-rule="nonzero"/></g><g clip-path="url(#58512f0c3b)"><g fill="#FFFFFF" fill-opacity="1"><g transform="translate(0.503797, 269.482581)"><g><path d="M 0 0 L 0 -32.296875 L 107.65625 -32.296875 L 107.65625 -37.65625 L 0 -37.65625 L 0 -107.65625 L 59.1875 -107.65625 L 91.515625 -75.359375 L 32.296875 -75.359375 L 32.296875 -70 L 139.984375 -70 L 139.984375 0 Z M 96.890625 -75.359375 L 64.59375 -107.65625 L 86.125 -107.65625 L 118.421875 -75.359375 Z M 134.578125 -75.359375 L 102.28125 -107.65625 L 107.65625 -107.65625 L 139.984375 -75.359375 Z M 134.578125 -75.359375 "/></g></g></g></g><g fill="#FFFFFF" fill-opacity="1"><g transform="translate(145.844055, 269.482581)"><g><path d="M 32.296875 -37.65625 L 64.59375 -70 L 139.984375 -70 L 139.984375 -37.65625 Z M 0 0 L 0 -107.65625 L 59.1875 -107.65625 L 91.515625 -75.359375 L 32.296875 -75.359375 L 32.296875 -32.296875 L 139.984375 -32.296875 L 139.984375 0 Z M 96.890625 -75.359375 L 64.59375 -107.65625 L 86.125 -107.65625 L 118.421875 -75.359375 Z M 134.578125 -75.359375 L 102.28125 -107.65625 L 107.65625 -107.65625 L 139.984375 -75.359375 Z M 134.578125 -75.359375 "/></g></g></g><g fill="#FFFFFF" fill-opacity="1"><g transform="translate(291.184314, 269.482581)"><g><path d="M 32.296875 0 L 0 -32.296875 L 5.359375 -32.296875 L 37.65625 0 Z M 53.828125 0 L 21.53125 -32.296875 L 43.0625 -32.296875 L 75.359375 0 Z M 80.75 0 L 48.421875 -32.296875 L 118.421875 -32.296875 L 118.421875 -37.65625 L 35 -37.65625 L 0 -107.65625 L 35 -107.65625 L 53.828125 -70 L 118.421875 -70 L 118.421875 -107.65625 L 150.75 -107.65625 L 150.75 0 Z M 80.75 0 "/></g></g></g><g fill="#FFFFFF" fill-opacity="1"><g transform="translate(447.289237, 269.482581)"><g><path d="M 156.109375 16.125 L 123.8125 -16.125 L 123.8125 -21.53125 L 156.109375 10.765625 Z M 0 0 L 0 -123.8125 L 75.359375 -48.421875 L 78.0625 -45.765625 L 156.109375 -123.8125 L 156.109375 -32.296875 L 123.8125 -64.59375 L 123.8125 -59.1875 L 156.109375 -26.890625 L 156.109375 -5.359375 L 123.8125 -37.65625 L 123.8125 -48.421875 L 78.0625 -2.671875 L 32.296875 -48.421875 L 32.296875 0 Z M 0 0 "/></g></g></g><g fill="#FFFFFF" fill-opacity="1"><g transform="translate(608.793557, 269.482581)"><g><path d="M 32.296875 -37.65625 L 64.59375 -70 L 139.984375 -70 L 139.984375 -37.65625 Z M 0 0 L 0 -107.65625 L 59.1875 -107.65625 L 91.515625 -75.359375 L 32.296875 -75.359375 L 32.296875 -32.296875 L 139.984375 -32.296875 L 139.984375 0 Z M 96.890625 -75.359375 L 64.59375 -107.65625 L 86.125 -107.65625 L 118.421875 -75.359375 Z M 134.578125 -75.359375 L 102.28125 -107.65625 L 107.65625 -107.65625 L 139.984375 -75.359375 Z M 134.578125 -75.359375 "/></g></g></g><g fill="#FFFFFF" fill-opacity="1"><g transform="translate(754.133815, 269.482581)"><g><path d="M 0 0 L 0 -107.65625 L 59.1875 -107.65625 L 91.515625 -75.359375 L 32.296875 -75.359375 L 32.296875 -32.296875 L 139.984375 -32.296875 L 139.984375 0 Z M 96.890625 -75.359375 L 64.59375 -107.65625 L 86.125 -107.65625 L 118.421875 -75.359375 Z M 134.578125 -75.359375 L 102.28125 -107.65625 L 107.65625 -107.65625 L 139.984375 -75.359375 Z M 134.578125 -75.359375 "/></g></g></g><g clip-path="url(#7b4a70ba17)"><g clip-path="url(#31e3ae6a28)"><g clip-path="url(#a459fa36c9)"><path fill="#FFFFFF" d="M 603.601562 307.539062 L 603.527344 308.574219 L 570.4375 282.851562 L 570.511719 281.816406 Z M 603.601562 307.539062 " fill-opacity="1" fill-rule="nonzero"/></g></g></g><g fill="#FFFFFF" fill-opacity="1"><g transform="translate(0.503797, 317.971436)"><g><path d="M 12.25 -4.75 C 12.25 -3.207031 11.691406 -1.988281 10.578125 -1.09375 C 9.472656 -0.207031 7.929688 0.234375 5.953125 0.234375 C 4.117188 0.234375 2.5 -0.109375 1.09375 -0.796875 L 1.09375 -4.171875 C 2.25 -3.648438 3.226562 -3.285156 4.03125 -3.078125 C 4.832031 -2.867188 5.5625 -2.765625 6.21875 -2.765625 C 7.019531 -2.765625 7.632812 -2.914062 8.0625 -3.21875 C 8.488281 -3.519531 8.703125 -3.972656 8.703125 -4.578125 C 8.703125 -4.910156 8.609375 -5.207031 8.421875 -5.46875 C 8.234375 -5.726562 7.957031 -5.976562 7.59375 -6.21875 C 7.226562 -6.46875 6.488281 -6.859375 5.375 -7.390625 C 4.320312 -7.878906 3.535156 -8.347656 3.015625 -8.796875 C 2.492188 -9.253906 2.078125 -9.78125 1.765625 -10.375 C 1.453125 -10.976562 1.296875 -11.679688 1.296875 -12.484375 C 1.296875 -14.003906 1.804688 -15.195312 2.828125 -16.0625 C 3.859375 -16.925781 5.28125 -17.359375 7.09375 -17.359375 C 7.976562 -17.359375 8.820312 -17.25 9.625 -17.03125 C 10.4375 -16.820312 11.285156 -16.53125 12.171875 -16.15625 L 11 -13.328125 C 10.082031 -13.703125 9.328125 -13.960938 8.734375 -14.109375 C 8.140625 -14.265625 7.550781 -14.34375 6.96875 -14.34375 C 6.289062 -14.34375 5.765625 -14.179688 5.390625 -13.859375 C 5.023438 -13.535156 4.84375 -13.117188 4.84375 -12.609375 C 4.84375 -12.285156 4.914062 -12.003906 5.0625 -11.765625 C 5.21875 -11.523438 5.457031 -11.296875 5.78125 -11.078125 C 6.101562 -10.859375 6.867188 -10.457031 8.078125 -9.875 C 9.671875 -9.113281 10.765625 -8.347656 11.359375 -7.578125 C 11.953125 -6.804688 12.25 -5.863281 12.25 -4.75 Z M 12.25 -4.75 "/></g></g></g><g fill="#FFFFFF" fill-opacity="1"><g transform="translate(13.703826, 317.971436)"><g><path d="M 12 0 L 2.15625 0 L 2.15625 -17.109375 L 12 -17.109375 L 12 -14.140625 L 5.78125 -14.140625 L 5.78125 -10.375 L 11.578125 -10.375 L 11.578125 -7.40625 L 5.78125 -7.40625 L 5.78125 -3 L 12 -3 Z M 12 0 "/></g></g></g><g fill="#FFFFFF" fill-opacity="1"><g transform="translate(27.126211, 317.971436)"><g><path d="M 5.78125 -9.515625 L 6.953125 -9.515625 C 8.097656 -9.515625 8.941406 -9.703125 9.484375 -10.078125 C 10.035156 -10.460938 10.3125 -11.066406 10.3125 -11.890625 C 10.3125 -12.703125 10.03125 -13.28125 9.46875 -13.625 C 8.914062 -13.96875 8.050781 -14.140625 6.875 -14.140625 L 5.78125 -14.140625 Z M 5.78125 -6.5625 L 5.78125 0 L 2.15625 0 L 2.15625 -17.109375 L 7.140625 -17.109375 C 9.460938 -17.109375 11.179688 -16.6875 12.296875 -15.84375 C 13.410156 -15 13.96875 -13.710938 13.96875 -11.984375 C 13.96875 -10.972656 13.691406 -10.078125 13.140625 -9.296875 C 12.585938 -8.515625 11.804688 -7.898438 10.796875 -7.453125 C 13.367188 -3.609375 15.046875 -1.125 15.828125 0 L 11.796875 0 L 7.71875 -6.5625 Z M 5.78125 -6.5625 "/></g></g></g><g fill="#FFFFFF" fill-opacity="1"><g transform="translate(42.947523, 317.971436)"><g><path d="M 11.921875 -17.109375 L 15.578125 -17.109375 L 9.765625 0 L 5.8125 0 L 0 -17.109375 L 3.65625 -17.109375 L 6.875 -6.921875 C 7.0625 -6.328125 7.25 -5.628906 7.4375 -4.828125 C 7.625 -4.023438 7.742188 -3.46875 7.796875 -3.15625 C 7.878906 -3.875 8.171875 -5.128906 8.671875 -6.921875 Z M 11.921875 -17.109375 "/></g></g></g><g fill="#FFFFFF" fill-opacity="1"><g transform="translate(58.523103, 317.971436)"><g><path d="M 2.15625 0 L 2.15625 -17.109375 L 5.78125 -17.109375 L 5.78125 0 Z M 2.15625 0 "/></g></g></g><g fill="#FFFFFF" fill-opacity="1"><g transform="translate(66.457164, 317.971436)"><g><path d="M 9.421875 -14.34375 C 8.054688 -14.34375 7 -13.828125 6.25 -12.796875 C 5.5 -11.773438 5.125 -10.347656 5.125 -8.515625 C 5.125 -4.691406 6.554688 -2.78125 9.421875 -2.78125 C 10.617188 -2.78125 12.070312 -3.082031 13.78125 -3.6875 L 13.78125 -0.640625 C 12.382812 -0.0546875 10.816406 0.234375 9.078125 0.234375 C 6.585938 0.234375 4.679688 -0.519531 3.359375 -2.03125 C 2.046875 -3.539062 1.390625 -5.707031 1.390625 -8.53125 C 1.390625 -10.3125 1.710938 -11.867188 2.359375 -13.203125 C 3.003906 -14.546875 3.929688 -15.570312 5.140625 -16.28125 C 6.359375 -17 7.785156 -17.359375 9.421875 -17.359375 C 11.085938 -17.359375 12.757812 -16.957031 14.4375 -16.15625 L 13.265625 -13.203125 C 12.617188 -13.503906 11.972656 -13.769531 11.328125 -14 C 10.679688 -14.226562 10.046875 -14.34375 9.421875 -14.34375 Z M 9.421875 -14.34375 "/></g></g></g><g fill="#FFFFFF" fill-opacity="1"><g transform="translate(81.728488, 317.971436)"><g><path d="M 2.15625 0 L 2.15625 -17.109375 L 5.78125 -17.109375 L 5.78125 0 Z M 2.15625 0 "/></g></g></g><g fill="#FFFFFF" fill-opacity="1"><g transform="translate(89.662549, 317.971436)"><g><path d="M 17.6875 -8.578125 C 17.6875 -5.742188 16.984375 -3.566406 15.578125 -2.046875 C 14.171875 -0.523438 12.15625 0.234375 9.53125 0.234375 C 6.914062 0.234375 4.90625 -0.523438 3.5 -2.046875 C 2.09375 -3.566406 1.390625 -5.753906 1.390625 -8.609375 C 1.390625 -11.453125 2.09375 -13.625 3.5 -15.125 C 4.914062 -16.625 6.9375 -17.375 9.5625 -17.375 C 12.1875 -17.375 14.195312 -16.617188 15.59375 -15.109375 C 16.988281 -13.597656 17.6875 -11.421875 17.6875 -8.578125 Z M 5.203125 -8.578125 C 5.203125 -6.671875 5.5625 -5.234375 6.28125 -4.265625 C 7.007812 -3.296875 8.09375 -2.8125 9.53125 -2.8125 C 12.425781 -2.8125 13.875 -4.734375 13.875 -8.578125 C 13.875 -12.429688 12.4375 -14.359375 9.5625 -14.359375 C 8.113281 -14.359375 7.023438 -13.875 6.296875 -12.90625 C 5.566406 -11.9375 5.203125 -10.492188 5.203125 -8.578125 Z M 5.203125 -8.578125 "/></g></g></g><g fill="#FFFFFF" fill-opacity="1"><g transform="translate(108.73706, 317.971436)"><g><path d="M 12.25 -4.75 C 12.25 -3.207031 11.691406 -1.988281 10.578125 -1.09375 C 9.472656 -0.207031 7.929688 0.234375 5.953125 0.234375 C 4.117188 0.234375 2.5 -0.109375 1.09375 -0.796875 L 1.09375 -4.171875 C 2.25 -3.648438 3.226562 -3.285156 4.03125 -3.078125 C 4.832031 -2.867188 5.5625 -2.765625 6.21875 -2.765625 C 7.019531 -2.765625 7.632812 -2.914062 8.0625 -3.21875 C 8.488281 -3.519531 8.703125 -3.972656 8.703125 -4.578125 C 8.703125 -4.910156 8.609375 -5.207031 8.421875 -5.46875 C 8.234375 -5.726562 7.957031 -5.976562 7.59375 -6.21875 C 7.226562 -6.46875 6.488281 -6.859375 5.375 -7.390625 C 4.320312 -7.878906 3.535156 -8.347656 3.015625 -8.796875 C 2.492188 -9.253906 2.078125 -9.78125 1.765625 -10.375 C 1.453125 -10.976562 1.296875 -11.679688 1.296875 -12.484375 C 1.296875 -14.003906 1.804688 -15.195312 2.828125 -16.0625 C 3.859375 -16.925781 5.28125 -17.359375 7.09375 -17.359375 C 7.976562 -17.359375 8.820312 -17.25 9.625 -17.03125 C 10.4375 -16.820312 11.285156 -16.53125 12.171875 -16.15625 L 11 -13.328125 C 10.082031 -13.703125 9.328125 -13.960938 8.734375 -14.109375 C 8.140625 -14.265625 7.550781 -14.34375 6.96875 -14.34375 C 6.289062 -14.34375 5.765625 -14.179688 5.390625 -13.859375 C 5.023438 -13.535156 4.84375 -13.117188 4.84375 -12.609375 C 4.84375 -12.285156 4.914062 -12.003906 5.0625 -11.765625 C 5.21875 -11.523438 5.457031 -11.296875 5.78125 -11.078125 C 6.101562 -10.859375 6.867188 -10.457031 8.078125 -9.875 C 9.671875 -9.113281 10.765625 -8.347656 11.359375 -7.578125 C 11.953125 -6.804688 12.25 -5.863281 12.25 -4.75 Z M 12.25 -4.75 "/></g></g></g><g fill="#FFFFFF" fill-opacity="1"><g transform="translate(121.937089, 317.971436)"><g/></g></g><g fill="#FFFFFF" fill-opacity="1"><g transform="translate(128.162635, 317.971436)"><g><path d="M 12 0 L 2.15625 0 L 2.15625 -17.109375 L 12 -17.109375 L 12 -14.140625 L 5.78125 -14.140625 L 5.78125 -10.375 L 11.578125 -10.375 L 11.578125 -7.40625 L 5.78125 -7.40625 L 5.78125 -3 L 12 -3 Z M 12 0 "/></g></g></g><g fill="#FFFFFF" fill-opacity="1"><g transform="translate(141.58502, 317.971436)"><g/></g></g><g fill="#FFFFFF" fill-opacity="1"><g transform="translate(147.810565, 317.971436)"><g><path d="M 2.15625 0 L 2.15625 -17.109375 L 5.78125 -17.109375 L 5.78125 0 Z M 2.15625 0 "/></g></g></g><g fill="#FFFFFF" fill-opacity="1"><g transform="translate(155.744626, 317.971436)"><g><path d="M 17.328125 0 L 12.71875 0 L 5.28125 -12.9375 L 5.171875 -12.9375 C 5.316406 -10.65625 5.390625 -9.023438 5.390625 -8.046875 L 5.390625 0 L 2.15625 0 L 2.15625 -17.109375 L 6.734375 -17.109375 L 14.15625 -4.296875 L 14.25 -4.296875 C 14.125 -6.515625 14.0625 -8.085938 14.0625 -9.015625 L 14.0625 -17.109375 L 17.328125 -17.109375 Z M 17.328125 0 "/></g></g></g><g fill="#FFFFFF" fill-opacity="1"><g transform="translate(175.228726, 317.971436)"><g><path d="M 8.65625 -9.609375 L 15.4375 -9.609375 L 15.4375 -0.734375 C 14.332031 -0.378906 13.296875 -0.128906 12.328125 0.015625 C 11.359375 0.160156 10.363281 0.234375 9.34375 0.234375 C 6.769531 0.234375 4.800781 -0.519531 3.4375 -2.03125 C 2.070312 -3.550781 1.390625 -5.734375 1.390625 -8.578125 C 1.390625 -11.335938 2.175781 -13.488281 3.75 -15.03125 C 5.332031 -16.582031 7.523438 -17.359375 10.328125 -17.359375 C 12.085938 -17.359375 13.78125 -17.003906 15.40625 -16.296875 L 14.203125 -13.40625 C 12.953125 -14.03125 11.65625 -14.34375 10.3125 -14.34375 C 8.738281 -14.34375 7.476562 -13.8125 6.53125 -12.75 C 5.59375 -11.695312 5.125 -10.285156 5.125 -8.515625 C 5.125 -6.648438 5.503906 -5.226562 6.265625 -4.25 C 7.023438 -3.269531 8.128906 -2.78125 9.578125 -2.78125 C 10.335938 -2.78125 11.109375 -2.859375 11.890625 -3.015625 L 11.890625 -6.59375 L 8.65625 -6.59375 Z M 8.65625 -9.609375 "/></g></g></g><g fill="#FFFFFF" fill-opacity="1"><g transform="translate(192.583034, 317.971436)"><g><path d="M 12 0 L 2.15625 0 L 2.15625 -17.109375 L 12 -17.109375 L 12 -14.140625 L 5.78125 -14.140625 L 5.78125 -10.375 L 11.578125 -10.375 L 11.578125 -7.40625 L 5.78125 -7.40625 L 5.78125 -3 L 12 -3 Z M 12 0 "/></g></g></g><g fill="#FFFFFF" fill-opacity="1"><g transform="translate(206.005418, 317.971436)"><g><path d="M 17.328125 0 L 12.71875 0 L 5.28125 -12.9375 L 5.171875 -12.9375 C 5.316406 -10.65625 5.390625 -9.023438 5.390625 -8.046875 L 5.390625 0 L 2.15625 0 L 2.15625 -17.109375 L 6.734375 -17.109375 L 14.15625 -4.296875 L 14.25 -4.296875 C 14.125 -6.515625 14.0625 -8.085938 14.0625 -9.015625 L 14.0625 -17.109375 L 17.328125 -17.109375 Z M 17.328125 0 "/></g></g></g><g fill="#FFFFFF" fill-opacity="1"><g transform="translate(225.489518, 317.971436)"><g><path d="M 2.15625 0 L 2.15625 -17.109375 L 5.78125 -17.109375 L 5.78125 0 Z M 2.15625 0 "/></g></g></g><g fill="#FFFFFF" fill-opacity="1"><g transform="translate(233.423579, 317.971436)"><g><path d="M 5.78125 -9.515625 L 6.953125 -9.515625 C 8.097656 -9.515625 8.941406 -9.703125 9.484375 -10.078125 C 10.035156 -10.460938 10.3125 -11.066406 10.3125 -11.890625 C 10.3125 -12.703125 10.03125 -13.28125 9.46875 -13.625 C 8.914062 -13.96875 8.050781 -14.140625 6.875 -14.140625 L 5.78125 -14.140625 Z M 5.78125 -6.5625 L 5.78125 0 L 2.15625 0 L 2.15625 -17.109375 L 7.140625 -17.109375 C 9.460938 -17.109375 11.179688 -16.6875 12.296875 -15.84375 C 13.410156 -15 13.96875 -13.710938 13.96875 -11.984375 C 13.96875 -10.972656 13.691406 -10.078125 13.140625 -9.296875 C 12.585938 -8.515625 11.804688 -7.898438 10.796875 -7.453125 C 13.367188 -3.609375 15.046875 -1.125 15.828125 0 L 11.796875 0 L 7.71875 -6.5625 Z M 5.78125 -6.5625 "/></g></g></g><g fill="#FFFFFF" fill-opacity="1"><g transform="translate(249.244891, 317.971436)"><g><path d="M 2.15625 0 L 2.15625 -17.109375 L 5.78125 -17.109375 L 5.78125 0 Z M 2.15625 0 "/></g></g></g><g fill="#FFFFFF" fill-opacity="1"><g transform="translate(257.178951, 317.971436)"><g><path d="M 12.625 0 L 11.390625 -4.078125 L 5.15625 -4.078125 L 3.90625 0 L 0 0 L 6.03125 -17.1875 L 10.46875 -17.1875 L 16.53125 0 Z M 10.515625 -7.109375 C 9.367188 -10.804688 8.722656 -12.894531 8.578125 -13.375 C 8.441406 -13.863281 8.34375 -14.25 8.28125 -14.53125 C 8.019531 -13.53125 7.28125 -11.054688 6.0625 -7.109375 Z M 10.515625 -7.109375 "/></g></g></g><g fill="#FFFFFF" fill-opacity="1"><g transform="translate(273.714108, 317.971436)"><g/></g></g><g fill="#FFFFFF" fill-opacity="1"><g transform="translate(279.939654, 317.971436)"><g><path d="M 9.390625 0 L 5.28125 -13.421875 L 5.171875 -13.421875 C 5.316406 -10.691406 5.390625 -8.867188 5.390625 -7.953125 L 5.390625 0 L 2.15625 0 L 2.15625 -17.109375 L 7.09375 -17.109375 L 11.140625 -4.03125 L 11.21875 -4.03125 L 15.5 -17.109375 L 20.453125 -17.109375 L 20.453125 0 L 17.0625 0 L 17.0625 -8.09375 C 17.0625 -8.476562 17.066406 -8.921875 17.078125 -9.421875 C 17.085938 -9.921875 17.140625 -11.25 17.234375 -13.40625 L 17.140625 -13.40625 L 12.71875 0 Z M 9.390625 0 "/></g></g></g><g fill="#FFFFFF" fill-opacity="1"><g transform="translate(302.536527, 317.971436)"><g><path d="M 12 0 L 2.15625 0 L 2.15625 -17.109375 L 12 -17.109375 L 12 -14.140625 L 5.78125 -14.140625 L 5.78125 -10.375 L 11.578125 -10.375 L 11.578125 -7.40625 L 5.78125 -7.40625 L 5.78125 -3 L 12 -3 Z M 12 0 "/></g></g></g><g fill="#FFFFFF" fill-opacity="1"><g transform="translate(315.958912, 317.971436)"><g><path d="M 9.421875 -14.34375 C 8.054688 -14.34375 7 -13.828125 6.25 -12.796875 C 5.5 -11.773438 5.125 -10.347656 5.125 -8.515625 C 5.125 -4.691406 6.554688 -2.78125 9.421875 -2.78125 C 10.617188 -2.78125 12.070312 -3.082031 13.78125 -3.6875 L 13.78125 -0.640625 C 12.382812 -0.0546875 10.816406 0.234375 9.078125 0.234375 C 6.585938 0.234375 4.679688 -0.519531 3.359375 -2.03125 C 2.046875 -3.539062 1.390625 -5.707031 1.390625 -8.53125 C 1.390625 -10.3125 1.710938 -11.867188 2.359375 -13.203125 C 3.003906 -14.546875 3.929688 -15.570312 5.140625 -16.28125 C 6.359375 -17 7.785156 -17.359375 9.421875 -17.359375 C 11.085938 -17.359375 12.757812 -16.957031 14.4375 -16.15625 L 13.265625 -13.203125 C 12.617188 -13.503906 11.972656 -13.769531 11.328125 -14 C 10.679688 -14.226562 10.046875 -14.34375 9.421875 -14.34375 Z M 9.421875 -14.34375 "/></g></g></g><g fill="#FFFFFF" fill-opacity="1"><g transform="translate(331.230236, 317.971436)"><g><path d="M 12.625 0 L 11.390625 -4.078125 L 5.15625 -4.078125 L 3.90625 0 L 0 0 L 6.03125 -17.1875 L 10.46875 -17.1875 L 16.53125 0 Z M 10.515625 -7.109375 C 9.367188 -10.804688 8.722656 -12.894531 8.578125 -13.375 C 8.441406 -13.863281 8.34375 -14.25 8.28125 -14.53125 C 8.019531 -13.53125 7.28125 -11.054688 6.0625 -7.109375 Z M 10.515625 -7.109375 "/></g></g></g><g fill="#FFFFFF" fill-opacity="1"><g transform="translate(347.765393, 317.971436)"><g><path d="M 8.75 0 L 5.125 0 L 5.125 -14.09375 L 0.484375 -14.09375 L 0.484375 -17.109375 L 13.40625 -17.109375 L 13.40625 -14.09375 L 8.75 -14.09375 Z M 8.75 0 "/></g></g></g><g fill="#FFFFFF" fill-opacity="1"><g transform="translate(361.644148, 317.971436)"><g><path d="M 5.78125 -9.515625 L 6.953125 -9.515625 C 8.097656 -9.515625 8.941406 -9.703125 9.484375 -10.078125 C 10.035156 -10.460938 10.3125 -11.066406 10.3125 -11.890625 C 10.3125 -12.703125 10.03125 -13.28125 9.46875 -13.625 C 8.914062 -13.96875 8.050781 -14.140625 6.875 -14.140625 L 5.78125 -14.140625 Z M 5.78125 -6.5625 L 5.78125 0 L 2.15625 0 L 2.15625 -17.109375 L 7.140625 -17.109375 C 9.460938 -17.109375 11.179688 -16.6875 12.296875 -15.84375 C 13.410156 -15 13.96875 -13.710938 13.96875 -11.984375 C 13.96875 -10.972656 13.691406 -10.078125 13.140625 -9.296875 C 12.585938 -8.515625 11.804688 -7.898438 10.796875 -7.453125 C 13.367188 -3.609375 15.046875 -1.125 15.828125 0 L 11.796875 0 L 7.71875 -6.5625 Z M 5.78125 -6.5625 "/></g></g></g><g fill="#FFFFFF" fill-opacity="1"><g transform="translate(377.46546, 317.971436)"><g><path d="M 17.6875 -8.578125 C 17.6875 -5.742188 16.984375 -3.566406 15.578125 -2.046875 C 14.171875 -0.523438 12.15625 0.234375 9.53125 0.234375 C 6.914062 0.234375 4.90625 -0.523438 3.5 -2.046875 C 2.09375 -3.566406 1.390625 -5.753906 1.390625 -8.609375 C 1.390625 -11.453125 2.09375 -13.625 3.5 -15.125 C 4.914062 -16.625 6.9375 -17.375 9.5625 -17.375 C 12.1875 -17.375 14.195312 -16.617188 15.59375 -15.109375 C 16.988281 -13.597656 17.6875 -11.421875 17.6875 -8.578125 Z M 5.203125 -8.578125 C 5.203125 -6.671875 5.5625 -5.234375 6.28125 -4.265625 C 7.007812 -3.296875 8.09375 -2.8125 9.53125 -2.8125 C 12.425781 -2.8125 13.875 -4.734375 13.875 -8.578125 C 13.875 -12.429688 12.4375 -14.359375 9.5625 -14.359375 C 8.113281 -14.359375 7.023438 -13.875 6.296875 -12.90625 C 5.566406 -11.9375 5.203125 -10.492188 5.203125 -8.578125 Z M 5.203125 -8.578125 "/></g></g></g><g fill="#FFFFFF" fill-opacity="1"><g transform="translate(396.539971, 317.971436)"><g><path d="M 17.328125 0 L 12.71875 0 L 5.28125 -12.9375 L 5.171875 -12.9375 C 5.316406 -10.65625 5.390625 -9.023438 5.390625 -8.046875 L 5.390625 0 L 2.15625 0 L 2.15625 -17.109375 L 6.734375 -17.109375 L 14.15625 -4.296875 L 14.25 -4.296875 C 14.125 -6.515625 14.0625 -8.085938 14.0625 -9.015625 L 14.0625 -17.109375 L 17.328125 -17.109375 Z M 17.328125 0 "/></g></g></g><g fill="#FFFFFF" fill-opacity="1"><g transform="translate(416.024071, 317.971436)"><g><path d="M 2.15625 0 L 2.15625 -17.109375 L 5.78125 -17.109375 L 5.78125 0 Z M 2.15625 0 "/></g></g></g><g fill="#FFFFFF" fill-opacity="1"><g transform="translate(423.958131, 317.971436)"><g><path d="M 9.421875 -14.34375 C 8.054688 -14.34375 7 -13.828125 6.25 -12.796875 C 5.5 -11.773438 5.125 -10.347656 5.125 -8.515625 C 5.125 -4.691406 6.554688 -2.78125 9.421875 -2.78125 C 10.617188 -2.78125 12.070312 -3.082031 13.78125 -3.6875 L 13.78125 -0.640625 C 12.382812 -0.0546875 10.816406 0.234375 9.078125 0.234375 C 6.585938 0.234375 4.679688 -0.519531 3.359375 -2.03125 C 2.046875 -3.539062 1.390625 -5.707031 1.390625 -8.53125 C 1.390625 -10.3125 1.710938 -11.867188 2.359375 -13.203125 C 3.003906 -14.546875 3.929688 -15.570312 5.140625 -16.28125 C 6.359375 -17 7.785156 -17.359375 9.421875 -17.359375 C 11.085938 -17.359375 12.757812 -16.957031 14.4375 -16.15625 L 13.265625 -13.203125 C 12.617188 -13.503906 11.972656 -13.769531 11.328125 -14 C 10.679688 -14.226562 10.046875 -14.34375 9.421875 -14.34375 Z M 9.421875 -14.34375 "/></g></g></g><g fill="#FFFFFF" fill-opacity="1"><g transform="translate(439.229456, 317.971436)"><g><path d="M 12.625 0 L 11.390625 -4.078125 L 5.15625 -4.078125 L 3.90625 0 L 0 0 L 6.03125 -17.1875 L 10.46875 -17.1875 L 16.53125 0 Z M 10.515625 -7.109375 C 9.367188 -10.804688 8.722656 -12.894531 8.578125 -13.375 C 8.441406 -13.863281 8.34375 -14.25 8.28125 -14.53125 C 8.019531 -13.53125 7.28125 -11.054688 6.0625 -7.109375 Z M 10.515625 -7.109375 "/></g></g></g><g fill="#FFFFFF" fill-opacity="1"><g transform="translate(455.764613, 317.971436)"><g/></g></g><g fill="#FFFFFF" fill-opacity="1"><g transform="translate(461.990159, 317.971436)"><g><path d="M 12.25 -4.75 C 12.25 -3.207031 11.691406 -1.988281 10.578125 -1.09375 C 9.472656 -0.207031 7.929688 0.234375 5.953125 0.234375 C 4.117188 0.234375 2.5 -0.109375 1.09375 -0.796875 L 1.09375 -4.171875 C 2.25 -3.648438 3.226562 -3.285156 4.03125 -3.078125 C 4.832031 -2.867188 5.5625 -2.765625 6.21875 -2.765625 C 7.019531 -2.765625 7.632812 -2.914062 8.0625 -3.21875 C 8.488281 -3.519531 8.703125 -3.972656 8.703125 -4.578125 C 8.703125 -4.910156 8.609375 -5.207031 8.421875 -5.46875 C 8.234375 -5.726562 7.957031 -5.976562 7.59375 -6.21875 C 7.226562 -6.46875 6.488281 -6.859375 5.375 -7.390625 C 4.320312 -7.878906 3.535156 -8.347656 3.015625 -8.796875 C 2.492188 -9.253906 2.078125 -9.78125 1.765625 -10.375 C 1.453125 -10.976562 1.296875 -11.679688 1.296875 -12.484375 C 1.296875 -14.003906 1.804688 -15.195312 2.828125 -16.0625 C 3.859375 -16.925781 5.28125 -17.359375 7.09375 -17.359375 C 7.976562 -17.359375 8.820312 -17.25 9.625 -17.03125 C 10.4375 -16.820312 11.285156 -16.53125 12.171875 -16.15625 L 11 -13.328125 C 10.082031 -13.703125 9.328125 -13.960938 8.734375 -14.109375 C 8.140625 -14.265625 7.550781 -14.34375 6.96875 -14.34375 C 6.289062 -14.34375 5.765625 -14.179688 5.390625 -13.859375 C 5.023438 -13.535156 4.84375 -13.117188 4.84375 -12.609375 C 4.84375 -12.285156 4.914062 -12.003906 5.0625 -11.765625 C 5.21875 -11.523438 5.457031 -11.296875 5.78125 -11.078125 C 6.101562 -10.859375 6.867188 -10.457031 8.078125 -9.875 C 9.671875 -9.113281 10.765625 -8.347656 11.359375 -7.578125 C 11.953125 -6.804688 12.25 -5.863281 12.25 -4.75 Z M 12.25 -4.75 "/></g></g></g><g fill="#FFFFFF" fill-opacity="1"><g transform="translate(475.190189, 317.971436)"><g><path d="M 1.375 -1.671875 C 1.375 -2.328125 1.546875 -2.820312 1.890625 -3.15625 C 2.242188 -3.488281 2.753906 -3.65625 3.421875 -3.65625 C 4.078125 -3.65625 4.582031 -3.484375 4.9375 -3.140625 C 5.289062 -2.804688 5.46875 -2.316406 5.46875 -1.671875 C 5.46875 -1.054688 5.285156 -0.570312 4.921875 -0.21875 C 4.566406 0.132812 4.066406 0.3125 3.421875 0.3125 C 2.773438 0.3125 2.269531 0.140625 1.90625 -0.203125 C 1.550781 -0.546875 1.375 -1.035156 1.375 -1.671875 Z M 1.375 -1.671875 "/></g></g></g><g fill="#FFFFFF" fill-opacity="1"><g transform="translate(482.024246, 317.971436)"><g><path d="M 12.625 0 L 11.390625 -4.078125 L 5.15625 -4.078125 L 3.90625 0 L 0 0 L 6.03125 -17.1875 L 10.46875 -17.1875 L 16.53125 0 Z M 10.515625 -7.109375 C 9.367188 -10.804688 8.722656 -12.894531 8.578125 -13.375 C 8.441406 -13.863281 8.34375 -14.25 8.28125 -14.53125 C 8.019531 -13.53125 7.28125 -11.054688 6.0625 -7.109375 Z M 10.515625 -7.109375 "/></g></g></g><g fill="#FFFFFF" fill-opacity="1"><g transform="translate(498.559431, 317.971436)"><g><path d="M 1.375 -1.671875 C 1.375 -2.328125 1.546875 -2.820312 1.890625 -3.15625 C 2.242188 -3.488281 2.753906 -3.65625 3.421875 -3.65625 C 4.078125 -3.65625 4.582031 -3.484375 4.9375 -3.140625 C 5.289062 -2.804688 5.46875 -2.316406 5.46875 -1.671875 C 5.46875 -1.054688 5.285156 -0.570312 4.921875 -0.21875 C 4.566406 0.132812 4.066406 0.3125 3.421875 0.3125 C 2.773438 0.3125 2.269531 0.140625 1.90625 -0.203125 C 1.550781 -0.546875 1.375 -1.035156 1.375 -1.671875 Z M 1.375 -1.671875 "/></g></g></g><g fill="#FFFFFF" fill-opacity="1"><g transform="translate(505.393489, 317.971436)"><g><path d="M 12.25 -4.75 C 12.25 -3.207031 11.691406 -1.988281 10.578125 -1.09375 C 9.472656 -0.207031 7.929688 0.234375 5.953125 0.234375 C 4.117188 0.234375 2.5 -0.109375 1.09375 -0.796875 L 1.09375 -4.171875 C 2.25 -3.648438 3.226562 -3.285156 4.03125 -3.078125 C 4.832031 -2.867188 5.5625 -2.765625 6.21875 -2.765625 C 7.019531 -2.765625 7.632812 -2.914062 8.0625 -3.21875 C 8.488281 -3.519531 8.703125 -3.972656 8.703125 -4.578125 C 8.703125 -4.910156 8.609375 -5.207031 8.421875 -5.46875 C 8.234375 -5.726562 7.957031 -5.976562 7.59375 -6.21875 C 7.226562 -6.46875 6.488281 -6.859375 5.375 -7.390625 C 4.320312 -7.878906 3.535156 -8.347656 3.015625 -8.796875 C 2.492188 -9.253906 2.078125 -9.78125 1.765625 -10.375 C 1.453125 -10.976562 1.296875 -11.679688 1.296875 -12.484375 C 1.296875 -14.003906 1.804688 -15.195312 2.828125 -16.0625 C 3.859375 -16.925781 5.28125 -17.359375 7.09375 -17.359375 C 7.976562 -17.359375 8.820312 -17.25 9.625 -17.03125 C 10.4375 -16.820312 11.285156 -16.53125 12.171875 -16.15625 L 11 -13.328125 C 10.082031 -13.703125 9.328125 -13.960938 8.734375 -14.109375 C 8.140625 -14.265625 7.550781 -14.34375 6.96875 -14.34375 C 6.289062 -14.34375 5.765625 -14.179688 5.390625 -13.859375 C 5.023438 -13.535156 4.84375 -13.117188 4.84375 -12.609375 C 4.84375 -12.285156 4.914062 -12.003906 5.0625 -11.765625 C 5.21875 -11.523438 5.457031 -11.296875 5.78125 -11.078125 C 6.101562 -10.859375 6.867188 -10.457031 8.078125 -9.875 C 9.671875 -9.113281 10.765625 -8.347656 11.359375 -7.578125 C 11.953125 -6.804688 12.25 -5.863281 12.25 -4.75 Z M 12.25 -4.75 "/></g></g></g><g fill="#FFFFFF" fill-opacity="1"><g transform="translate(518.59671, 317.971436)"><g/></g></g></svg>